<svg width="211" height="114" viewBox="0 0 211 114" fill="none" xmlns="http://www.w3.org/2000/svg">
<path d="M87.5235 33.6501C87.0591 33.0157 86.3794 32.6872 85.5638 32.7212C84.8049 32.7552 84.0572 32.8005 83.2983 32.8458C83.1397 32.8572 83.0151 32.9704 82.9811 33.129C81.3046 42.463 80.0812 50.8682 79.2316 58.8315C79.1297 59.7264 79.3562 60.5873 79.866 61.2443C80.3644 61.9013 81.078 62.2865 81.8483 62.3318C82.6073 62.3771 83.3662 62.4224 84.1139 62.4677H84.1365C84.3064 62.4677 84.4537 62.3318 84.4764 62.1506C85.2693 54.1872 86.436 45.6688 87.9993 36.0855C88.1692 35.1453 87.9993 34.2844 87.5235 33.6501ZM87.3423 35.9723C85.7904 45.4309 84.6463 53.8587 83.8533 61.7428C83.1963 61.6974 82.5506 61.6635 81.905 61.6295C81.3159 61.5955 80.7949 61.301 80.4097 60.8026C80.0132 60.2928 79.8433 59.6245 79.9113 58.9108C80.7495 51.0381 81.9616 42.7349 83.6041 33.5255C84.2611 33.4915 85.6997 33.4122 85.6997 33.4122C86.2321 33.4122 86.6739 33.6388 86.9798 34.0692C87.3423 34.5563 87.4669 35.2246 87.3423 35.9723ZM146.869 40.0955C146.45 39.5292 145.567 38.9741 144.762 38.8608C143.38 38.6683 139.563 38.4304 136.992 38.3851C135.451 38.3851 134.137 39.6424 133.933 41.3076C133.888 41.7381 132.902 47.9796 132.664 50.1885C132.46 52.1255 133.842 53.0997 135.315 53.0997C135.315 53.0997 138.793 53.0884 140.141 53.0657C139.982 53.972 139.744 55.2973 139.62 55.9996C138.793 56.0449 137.966 56.0902 137.139 56.1355C137.139 56.1355 137.184 55.8524 137.184 55.7051C137.184 54.6969 136.459 53.904 135.53 53.904L132.2 54.0059C132.03 54.0173 131.894 54.1419 131.86 54.3118C131.611 55.8297 131.35 57.3476 131.09 58.8769C130.931 59.7831 131.101 60.6213 131.566 61.233C131.996 61.8107 132.653 62.1392 133.412 62.1392C133.457 62.1392 137.807 61.9127 141.466 61.5049C142.905 61.3463 144.377 59.9303 144.808 58.2765C145.363 56.1695 145.759 54.2212 146.212 50.4151C146.326 49.4296 146.178 48.7952 145.657 48.1609C145.17 47.5718 144.468 47.2433 143.675 47.2433H138.713C138.781 46.8695 139.155 44.6266 139.223 44.1848C139.857 44.1962 141.647 44.2415 141.647 44.2415C141.647 44.2415 141.602 44.4114 141.613 44.6719C141.659 45.6574 142.451 46.4617 143.369 46.473C144.411 46.4844 145.465 46.4957 146.529 46.507C146.722 46.507 146.858 46.3711 146.881 46.2012C147.084 44.9211 147.277 43.5845 147.47 42.2252C147.583 41.2963 147.266 40.6166 146.869 40.0955ZM146.767 42.1345C146.597 43.3692 146.416 44.5926 146.235 45.782C145.272 45.7707 144.332 45.7594 143.369 45.7481C142.814 45.7367 142.338 45.2496 142.316 44.6493C142.304 44.434 142.451 43.9923 142.451 43.9923C142.474 43.879 142.463 43.7657 142.395 43.6751C142.327 43.5845 142.225 43.5278 142.112 43.5278C142.112 43.5278 139.665 43.4712 138.917 43.4485C138.725 43.4485 138.589 43.5845 138.566 43.7657C138.509 44.1282 138.011 47.1414 137.943 47.5605C137.932 47.6624 137.954 47.7757 138.022 47.855C138.09 47.9343 138.192 47.9796 138.294 47.9796H143.664C144.241 47.9796 144.762 48.2175 145.102 48.6479C145.442 49.0557 145.601 49.4522 145.499 50.3358C145.057 54.0966 144.649 56.0223 144.105 58.0952C143.754 59.4319 142.508 60.6553 141.375 60.7799C137.739 61.199 133.514 61.4143 133.514 61.4143C132.925 61.4369 132.438 61.233 132.109 60.7912C131.769 60.3381 131.656 59.7151 131.769 59.0241C132.019 57.5968 132.257 56.1695 132.494 54.7536C133.491 54.7196 134.488 54.6856 135.508 54.6516C136.04 54.6516 136.448 55.1274 136.459 55.7164C136.459 55.9543 136.357 56.4754 136.357 56.4754C136.346 56.5887 136.368 56.6906 136.448 56.7812C136.516 56.8605 136.618 56.9058 136.731 56.8945C137.796 56.8379 138.849 56.7812 139.914 56.7246C140.073 56.7133 140.209 56.5887 140.243 56.4301C140.367 55.7844 140.73 53.7228 140.9 52.7599C140.911 52.6466 140.888 52.5333 140.82 52.4541C140.752 52.3748 140.639 52.3294 140.537 52.3294C139.586 52.3634 135.292 52.3748 135.292 52.3748C134.092 52.3748 133.219 51.5139 133.344 50.2338C133.571 48.0589 134.567 41.8287 134.613 41.3869C134.771 40.0842 135.791 39.11 136.969 39.11C140.446 39.178 143.233 39.3932 144.649 39.5858C145.227 39.6538 145.94 40.0842 146.269 40.5147C146.665 41.0018 146.847 41.5002 146.767 42.1345ZM132.676 38.3058C132.619 38.2378 132.528 38.1925 132.426 38.1812L129.844 38.0792C128.337 38.0792 127.046 39.3592 126.831 41.0697C126.219 46.0086 125.494 51.0834 124.61 56.6C123.806 56.6226 123.002 56.6453 122.198 56.668C123.047 51.2193 123.761 46.2012 124.372 41.3303C124.486 40.4127 124.282 39.5292 123.783 38.8722C123.285 38.2151 122.583 37.8413 121.79 37.8074C121.019 37.796 120.261 37.7734 119.502 37.7507C119.32 37.7507 119.173 37.8866 119.15 38.0566C118.38 44.4001 117.451 51.1854 116.194 59.4093C116.058 60.3268 116.239 61.1764 116.704 61.8334C117.168 62.4791 117.848 62.8302 118.618 62.8302H118.709C121.314 62.7396 123.942 62.6263 126.536 62.4904C128.031 62.3998 129.436 61.0065 129.73 59.3186C131.033 51.9103 132.019 45.125 132.766 38.5663C132.766 38.487 132.732 38.3851 132.676 38.3058ZM129.051 59.2054C128.813 60.5647 127.669 61.7314 126.491 61.7994C123.908 61.9353 121.28 62.0486 118.686 62.1392L118.618 62.1506C118.063 62.1506 117.599 61.9013 117.259 61.4369C116.908 60.9385 116.772 60.2588 116.885 59.5452C118.108 51.4459 119.037 44.7399 119.796 38.487C120.453 38.4983 121.11 38.521 121.778 38.5323C122.356 38.5437 122.877 38.8268 123.24 39.3139C123.625 39.8237 123.783 40.5147 123.693 41.251C123.07 46.2352 122.333 51.3779 121.461 56.9851C121.439 57.0871 121.473 57.2004 121.541 57.2683C121.609 57.3476 121.71 57.3929 121.801 57.3929C122.843 57.3589 123.885 57.3363 124.916 57.3023C125.075 57.3023 125.211 57.1664 125.245 57.0078C126.151 51.3779 126.887 46.2012 127.51 41.1717C127.68 39.8237 128.677 38.8042 129.844 38.8042L132.041 38.8948C131.294 45.3063 130.32 51.967 129.051 59.2054ZM75.924 46.473L79.1863 46.4504C79.3562 46.4504 79.5035 46.3144 79.5262 46.1445C79.7527 44.6379 80.0019 43.12 80.2511 41.6021C80.3984 40.6733 80.2171 39.801 79.7301 39.1667C79.2769 38.555 78.586 38.2378 77.7477 38.2378C75.754 38.2378 72.3671 38.3737 69.7277 38.6456C68.2438 38.7929 66.3634 40.1975 66.0689 41.84C64.9927 47.7984 63.9619 55.977 63.9619 57.9706C63.9619 58.4577 64.0299 59.6585 64.6642 60.4287C65.1966 61.0744 66.0462 61.2896 66.7938 61.4256C69.0027 61.8107 72.9788 62.1279 74.6892 62.1279H74.8252C76.513 62.1052 77.4532 61.2104 77.7704 59.3186C78.1895 56.8152 78.9938 49.9959 79.0617 49.4522C79.1523 48.7952 79.0391 48.2855 78.7445 47.923C78.4387 47.5492 77.9403 47.3679 77.2719 47.3679L72.1178 47.3792C71.9479 47.3792 71.8007 47.5039 71.7667 47.6851C71.7667 47.6851 71.4382 49.8374 71.2909 50.8455C71.223 51.3892 71.3702 51.9556 71.7214 52.3861C72.0272 52.7599 72.4577 52.9865 72.8995 53.0091L73.1487 53.0204C73.092 53.3603 72.7182 55.4219 72.571 56.2488C71.9932 56.2262 70.0222 56.1016 69.6711 56.0789C69.875 54.0286 71.0417 45.9633 71.3476 44.2641C71.88 44.2641 73.8283 44.2415 74.2135 44.2301C74.1795 44.468 74.1682 44.6719 74.1682 44.6719C74.1908 45.6574 74.9724 46.473 75.924 46.473ZM71.0644 43.5165C70.9058 43.5165 70.7699 43.6298 70.7359 43.7997C70.532 44.6379 69.0254 55.1047 68.9688 56.3848C68.9574 56.5887 69.1047 56.7586 69.2973 56.7699C69.739 56.7926 72.2085 56.9511 72.8768 56.9851C73.058 56.9851 73.2053 56.8605 73.2393 56.6906C73.4205 55.6711 73.8623 53.2017 73.9303 52.7146C73.9529 52.6126 73.919 52.5107 73.851 52.4314C73.783 52.3521 73.6924 52.3068 73.5904 52.3068L72.9334 52.2841C72.6956 52.2728 72.4464 52.1482 72.2651 51.9217C72.0499 51.6498 71.9479 51.2986 71.9932 50.9588C72.1292 49.9846 72.2764 49.0897 72.4237 48.1155L77.2833 48.1042C77.7251 48.1042 78.0422 48.2062 78.2121 48.4101C78.3707 48.6026 78.4274 48.9311 78.3707 49.3729C78.3028 49.928 77.4985 56.7359 77.0794 59.2167C76.8188 60.7686 76.1618 61.4143 74.8138 61.4256H74.6892C73.0127 61.4256 69.0934 61.1084 66.9184 60.7346C66.2501 60.6213 65.5818 60.4514 65.1966 59.9756C64.8002 59.4999 64.6642 58.639 64.6642 57.9933C64.6642 56.2148 65.6044 48.3421 66.7599 41.9986C66.9977 40.6846 68.5949 39.5292 69.7957 39.4046C72.4124 39.144 75.7767 38.9968 77.7477 38.9968C78.1782 38.9968 78.7785 39.11 79.1863 39.6424C79.5488 40.1182 79.6734 40.7752 79.5601 41.5115C79.3223 42.9275 79.0957 44.3434 78.8805 45.7481H75.9126C75.3576 45.7481 74.8931 45.2496 74.8818 44.6266C74.8931 44.5247 75.063 43.4825 75.063 43.4825C75.063 43.4825 71.6761 43.4939 71.0644 43.5165ZM96.6536 43.0294C95.5548 43.0407 94.456 43.0407 93.3459 43.0521C93.1873 43.0521 93.0401 43.1767 93.0174 43.3353C92.8475 44.2641 91.307 55.7164 91.1823 57.1097C91.171 57.2004 91.205 57.3023 91.2616 57.3816C91.3296 57.4609 91.4202 57.4949 91.5109 57.4949C92.6096 57.5289 93.6971 57.5402 94.7959 57.5628C94.9771 57.5628 95.1244 57.4269 95.1357 57.2457C95.215 56.3281 96.7442 44.8532 96.9821 43.4485C97.0048 43.3466 96.9708 43.2446 96.9028 43.1653C96.8462 43.0747 96.7556 43.0181 96.6536 43.0294ZM94.5127 56.8492C93.6405 56.8265 92.7796 56.8152 91.9073 56.7926C92.1679 54.5723 93.3686 45.6121 93.6518 43.7544C94.524 43.7431 95.3962 43.7317 96.2685 43.7317C95.9173 46.0539 94.7392 54.9008 94.5127 56.8492ZM101.604 38.6456C101.128 37.9886 100.426 37.6261 99.6215 37.6261C97.0161 37.6488 94.3541 37.6941 91.7487 37.762C90.2195 37.796 88.8149 39.2007 88.543 40.9564C87.5462 47.5265 86.7532 53.4849 86.1075 59.1827C86.0056 60.0663 86.2321 60.9272 86.7192 61.5955C87.229 62.2752 87.9426 62.6603 88.7356 62.6943C91.3862 62.8189 94.0143 62.8982 96.5517 62.9548H96.6083C98.0809 62.9548 99.4176 61.5955 99.6328 59.851C100.437 53.4509 101.309 47.0847 102.125 41.149C102.283 40.2088 102.091 39.3253 101.604 38.6456ZM101.468 41.0584C100.641 46.9828 99.7687 53.3603 98.9758 59.7604C98.7946 61.1537 97.7637 62.2525 96.6196 62.2525H96.5743C94.0369 62.1959 91.4202 62.1052 88.7696 61.992C88.1805 61.9693 87.6481 61.6748 87.263 61.1537C86.8778 60.6326 86.7079 59.9643 86.7872 59.2733C87.4216 53.5755 88.2145 47.6171 89.2113 41.0697C89.4379 39.6424 90.548 38.4983 91.7601 38.4757C94.3654 38.419 97.0161 38.3737 99.6441 38.3398C100.211 38.3398 100.709 38.6003 101.06 39.0761C101.423 39.5971 101.581 40.2994 101.468 41.0584ZM116.67 38.7136C116.183 38.0452 115.48 37.6714 114.687 37.6601C113.011 37.6374 111.334 37.6148 109.658 37.6035C109.726 37.105 109.907 35.7457 109.907 35.7457C110.02 34.8055 109.828 33.8993 109.341 33.231C108.854 32.5626 108.163 32.1888 107.37 32.1775H105.104C104.934 32.1775 104.798 32.3134 104.764 32.4833C104.368 35.4285 101.91 53.4282 101.128 59.5112C101.015 60.4174 101.207 61.2896 101.683 61.9693C102.182 62.649 102.895 63.0341 103.688 63.0341C104.334 63.0341 109.567 63.0228 111.493 63.0001C112.988 62.9775 114.37 61.5728 114.631 59.8057C115.695 52.624 116.522 46.7109 117.236 41.1943C117.372 40.2881 117.168 39.3932 116.67 38.7136ZM116.568 41.1264C115.865 46.6429 115.038 52.5447 113.974 59.7264C113.758 61.165 112.671 62.2978 111.493 62.3205C108.955 62.3658 106.305 62.3771 103.699 62.3658C103.11 62.3545 102.589 62.0826 102.238 61.5842C101.864 61.0631 101.706 60.3834 101.808 59.6132C102.578 53.5642 105.013 35.7684 105.399 32.9251H107.358C107.925 32.9251 108.434 33.197 108.786 33.6954C109.159 34.2165 109.318 34.9301 109.216 35.6891C109.216 35.6891 109.001 37.3089 108.922 37.9433C108.91 38.0452 108.944 38.1472 109.001 38.2265C109.069 38.3058 109.159 38.3511 109.25 38.3511C111.051 38.3624 112.864 38.3737 114.665 38.4077C115.242 38.419 115.752 38.6909 116.115 39.178C116.511 39.6764 116.67 40.3787 116.568 41.1264ZM111.855 43.0181C111.855 43.0181 109.499 43.0068 108.548 43.0068C108.378 43.0068 108.231 43.1427 108.208 43.3126C108.129 43.9356 106.305 57.257 106.305 57.257C106.293 57.3476 106.327 57.4609 106.384 57.5402C106.452 57.6195 106.543 57.6648 106.645 57.6648C107.743 57.6648 108.831 57.6535 109.93 57.6535C110.1 57.6535 110.236 57.5175 110.27 57.3476C110.394 56.532 112.014 44.7965 112.184 43.4146C112.195 43.3126 112.173 43.2107 112.105 43.1314C112.048 43.0634 111.957 43.0181 111.855 43.0181ZM109.646 56.9398C108.786 56.9398 107.913 56.9511 107.052 56.9511C107.052 56.9511 108.672 45.0684 108.854 43.7091C109.703 43.7091 111.47 43.7204 111.47 43.7204C111.164 46.0086 109.907 55.0594 109.646 56.9398Z" fill="#C74A1B"/>
<path d="M87.3424 35.972C85.8019 45.4307 84.6464 53.8585 83.8535 61.7425C83.1965 61.6972 82.5508 61.6632 81.9051 61.6293C81.3274 61.5953 80.795 61.3008 80.4099 60.8023C80.0134 60.2926 79.8322 59.6243 79.9115 58.9106C80.7497 51.0379 81.9618 42.7347 83.6043 33.5253C84.2613 33.4913 85.6999 33.412 85.6999 33.412C86.2323 33.412 86.6741 33.6385 86.9799 34.069C87.3311 34.5561 87.4557 35.2244 87.3424 35.972ZM146.767 42.1343C146.598 43.369 146.416 44.5924 146.235 45.7818C145.272 45.7705 144.332 45.7592 143.369 45.7478C142.814 45.7365 142.338 45.2494 142.316 44.6491C142.304 44.4338 142.452 43.9921 142.452 43.9921C142.474 43.8788 142.463 43.7655 142.395 43.6749C142.327 43.5843 142.225 43.5276 142.112 43.5276C142.112 43.5276 139.665 43.471 138.917 43.4483C138.725 43.4483 138.589 43.5843 138.566 43.7655C138.521 44.128 138.011 47.1412 137.943 47.5603C137.921 47.6622 137.955 47.7755 138.023 47.8548C138.09 47.9341 138.192 47.9794 138.294 47.9794H143.664C144.241 47.9794 144.762 48.2173 145.102 48.6477C145.442 49.0555 145.612 49.452 145.499 50.3356C145.057 54.0964 144.649 56.0221 144.105 58.095C143.766 59.4317 142.508 60.6551 141.376 60.7797C137.739 61.1988 133.514 61.414 133.514 61.414C132.925 61.4367 132.438 61.2328 132.109 60.791C131.77 60.3379 131.656 59.7149 131.77 59.0239C132.019 57.5966 132.257 56.1693 132.495 54.7534C133.491 54.7194 134.488 54.6854 135.508 54.6514C136.04 54.6514 136.448 55.1158 136.459 55.7162C136.459 55.9541 136.357 56.4752 136.357 56.4752C136.346 56.5884 136.38 56.6904 136.448 56.781C136.516 56.8603 136.618 56.9056 136.731 56.8943C137.796 56.8377 138.849 56.781 139.914 56.7244C140.073 56.713 140.209 56.5884 140.243 56.4299C140.367 55.7842 140.73 53.7225 140.9 52.7597C140.911 52.6464 140.888 52.5331 140.82 52.4538C140.752 52.3745 140.639 52.3292 140.537 52.3292C139.586 52.3632 135.293 52.3745 135.293 52.3745C134.092 52.3745 133.22 51.5136 133.344 50.2336C133.571 48.0587 134.568 41.8285 134.613 41.3867C134.771 40.084 135.78 39.1098 136.969 39.1098C140.435 39.1778 143.233 39.393 144.649 39.5743C145.227 39.6422 145.941 40.0727 146.269 40.5031C146.654 41.0129 146.847 41.5 146.767 42.1343ZM129.051 59.2051C128.813 60.5645 127.658 61.7312 126.491 61.7992C123.908 61.9351 121.28 62.0484 118.686 62.139L118.618 62.1503C118.063 62.1503 117.587 61.9011 117.259 61.4367C116.908 60.9383 116.772 60.2586 116.885 59.545C118.108 51.457 119.037 44.7397 119.796 38.4868C120.453 38.4981 121.11 38.5208 121.779 38.5321C122.356 38.5434 122.889 38.8266 123.251 39.3137C123.636 39.8235 123.795 40.5145 123.704 41.2508C123.081 46.2349 122.345 51.3777 121.473 56.9849C121.45 57.0869 121.484 57.2001 121.552 57.2681C121.62 57.3474 121.711 57.3927 121.813 57.3927C122.855 57.3587 123.897 57.3361 124.928 57.3021C125.086 57.2908 125.222 57.1662 125.256 57.0076C126.162 51.3777 126.91 46.201 127.522 41.1715C127.692 39.8235 128.7 38.804 129.855 38.804L132.053 38.8946C131.294 45.3061 130.32 51.9667 129.051 59.2051ZM71.0645 43.5163C70.906 43.5163 70.77 43.6296 70.736 43.7882C70.5321 44.6264 69.0256 55.0932 68.9576 56.3732C68.9463 56.5771 69.0935 56.747 69.2861 56.7584C69.7279 56.781 72.1973 56.9396 72.8657 56.9623C73.0469 56.9623 73.1942 56.8377 73.2281 56.6677C73.4094 55.6482 73.8512 53.1788 73.9191 52.6917C73.9418 52.5898 73.9078 52.4878 73.8398 52.4085C73.7832 52.3292 73.6812 52.2839 73.5793 52.2839L72.9223 52.2613C72.6844 52.2499 72.4352 52.1253 72.254 51.8988C72.0274 51.6269 71.9368 51.2758 71.9821 50.9359C72.118 49.9617 72.2653 49.0669 72.4125 48.0927L77.2721 48.0813C77.7139 48.0813 78.0311 48.1833 78.201 48.3872C78.3596 48.5798 78.4162 48.9083 78.3596 49.35C78.2916 49.9051 77.4873 56.713 77.0682 59.1938C76.8077 60.7457 76.1507 61.3914 74.8027 61.4027H74.6781C73.0016 61.4027 69.0822 61.0855 66.9073 60.7117C66.239 60.5871 65.5706 60.4172 65.1855 59.9528C64.789 59.477 64.6531 58.6161 64.6531 57.9704C64.6531 56.192 65.5933 48.3192 66.7487 41.9757C66.9866 40.6617 68.5838 39.5063 69.7845 39.3817C72.4012 39.1211 75.7655 38.9739 77.7366 38.9739C78.167 38.9739 78.7674 39.0872 79.1752 39.6196C79.5377 40.0953 79.6623 40.7523 79.549 41.4886C79.3224 42.9046 79.0846 44.3206 78.8693 45.7252L75.9128 45.7478C75.3577 45.7478 74.8933 45.2494 74.882 44.6264C74.8933 44.5245 75.0632 43.4823 75.0632 43.4823C75.0632 43.4823 71.6649 43.4936 71.0645 43.5163ZM96.6538 43.0292C95.555 43.0405 94.4562 43.0405 93.3461 43.0519C93.1875 43.0519 93.0403 43.1765 93.0176 43.335C92.8477 44.2639 91.3071 55.7162 91.1825 57.1095C91.1712 57.2001 91.2052 57.3021 91.2618 57.3701C91.3298 57.4493 91.4204 57.4833 91.511 57.4833C92.5985 57.5173 93.6973 57.5286 94.7961 57.5513C94.9773 57.5513 95.1246 57.4154 95.1359 57.2341C95.2152 56.3166 96.7444 44.8416 96.9823 43.4257C96.9936 43.3237 96.971 43.2218 96.903 43.1425C96.8464 43.0745 96.7557 43.0179 96.6538 43.0292ZM101.468 41.0582C100.641 46.9826 99.7689 53.36 98.976 59.7602C98.7947 61.1535 97.7639 62.2523 96.6311 62.2523H96.5858C94.0484 62.1956 91.4317 62.105 88.7811 61.9917C88.192 61.9691 87.6596 61.6746 87.2858 61.1648C86.8893 60.6438 86.7307 59.9754 86.81 59.2844C87.4444 53.5866 88.2373 47.6282 89.2342 41.0808C89.4607 39.6535 90.5708 38.5095 91.7829 38.4868C94.3883 38.4302 97.0389 38.3848 99.667 38.3509C100.233 38.3509 100.732 38.6114 101.083 39.0872C101.423 39.5969 101.57 40.2992 101.468 41.0582ZM116.568 41.1261C115.866 46.6427 115.039 52.5445 113.974 59.7262C113.759 61.1648 112.671 62.2976 111.493 62.3089C108.956 62.3542 106.305 62.3656 103.7 62.3542C103.122 62.3429 102.59 62.071 102.238 61.5726C101.865 61.0515 101.706 60.3719 101.808 59.6016C102.59 53.5526 105.014 35.7568 105.399 32.9136H107.358C107.925 32.9136 108.435 33.1854 108.786 33.6839C109.16 34.2049 109.318 34.9186 109.216 35.6775C109.216 35.6775 109.001 37.2974 108.922 37.9317C108.91 38.0337 108.933 38.1356 109.001 38.2149C109.069 38.2942 109.16 38.3395 109.262 38.3395C111.063 38.3509 112.864 38.3622 114.676 38.3962C115.254 38.4075 115.764 38.6794 116.126 39.1665C116.511 39.6762 116.67 40.3785 116.568 41.1261ZM111.856 43.0179C111.856 43.0179 109.499 43.0065 108.548 43.0065C108.378 43.0065 108.231 43.1425 108.208 43.3124C108.129 43.9354 106.305 57.2568 106.305 57.2568C106.294 57.3587 106.328 57.4607 106.384 57.54C106.441 57.6193 106.543 57.6646 106.645 57.6646C107.732 57.6646 108.831 57.6532 109.93 57.6532C110.1 57.6532 110.236 57.5173 110.27 57.3474C110.394 56.5318 112.014 44.7963 112.184 43.4143C112.195 43.3124 112.173 43.2104 112.105 43.1311C112.048 43.0632 111.958 43.0179 111.856 43.0179Z" fill="#F47920"/>
<path d="M96.6991 26.1737C95.0113 26.6042 93.3801 27.1366 91.8282 27.7709C92.6891 28.1901 93.6519 28.5752 94.6941 28.9037C95.4531 27.7936 96.144 26.8647 96.6991 26.1737ZM121.643 27.8729C119.966 27.1706 118.21 26.5929 116.364 26.1284C116.919 26.8194 117.667 27.8162 118.516 29.051C119.66 28.7111 120.702 28.3147 121.643 27.8729ZM117.667 29.3002C116.432 27.5217 115.424 26.2983 115.005 25.8226C112.479 25.2902 109.828 24.9957 107.098 24.9617V29.1416C108.525 29.1756 109.828 29.64 110.836 30.4783C113.283 30.263 115.605 29.8552 117.667 29.3002ZM95.5437 29.1642C97.6733 29.7759 100.086 30.229 102.657 30.4556C103.677 29.1303 105.455 29.1303 106.158 29.1303H106.271V24.9617C103.416 24.9843 100.664 25.3015 98.0471 25.8679C97.5147 26.4909 96.6085 27.6237 95.5437 29.1642ZM101.649 34.5109C101.74 33.8879 101.865 33.027 101.944 32.3473C101.989 31.9622 102.068 31.6337 102.17 31.3392C99.5763 31.0786 97.1409 30.6142 94.9999 29.9572C94.0937 31.3052 93.1195 32.891 92.1907 34.6695C94.9773 34.6242 99.7123 34.5336 101.649 34.5109ZM120.023 65.9226C118.663 65.9679 117.338 66.0132 116.092 66.0359C113.396 66.0812 110.304 66.1378 107.098 66.1491V67.6444C111.097 67.6784 114.891 68.1994 118.052 69.0943C118.686 68.1541 119.354 67.0893 120.023 65.9226ZM111.652 31.3165C112.309 32.1774 112.728 33.2309 112.875 34.4429C113.589 34.4656 114.653 34.4996 115.809 34.5222C117.282 34.5675 119.06 34.6129 120.929 34.6695C120.034 32.9477 119.083 31.4071 118.222 30.0931C116.217 30.6708 113.996 31.0786 111.652 31.3165ZM121.881 34.7035C125.687 34.8168 129.719 34.9527 132.313 35.0999C129.753 32.3813 126.502 30.0818 122.741 28.36C121.665 28.9264 120.419 29.4248 119.06 29.8552C119.966 31.2372 120.963 32.8797 121.881 34.7035ZM116.353 72.8778C118.097 72.436 119.785 71.8923 121.382 71.2353C120.487 70.8048 119.479 70.431 118.392 70.1025C117.61 71.2466 116.896 72.1868 116.353 72.8778ZM91.0239 34.6808C91.0919 34.6808 91.1712 34.6808 91.2505 34.6808C92.2133 32.8118 93.2215 31.1239 94.173 29.6966C92.9043 29.2775 91.7602 28.7791 90.7521 28.2354C89.608 28.7451 88.4979 29.3115 87.4557 29.9345C88.2033 30.1724 88.8717 30.5689 89.4154 31.1239C90.2763 32.0075 90.8427 33.2649 91.0239 34.6808ZM118.901 69.3435C120.215 69.7627 121.393 70.2498 122.424 70.7822C125.619 69.3549 128.473 67.5198 130.841 65.3562C127.692 65.5488 124.259 65.7413 121.008 65.8773C120.306 67.1573 119.581 68.3127 118.901 69.3435ZM94.5242 65.9792C94.0258 65.9566 93.5273 65.9452 93.0516 65.9226C93.7312 67.112 94.4109 68.1994 95.0566 69.151C98.2736 68.2108 102.182 67.667 106.271 67.6444V66.1491C105.807 66.1491 105.353 66.1491 104.889 66.1491C101.083 66.1491 97.6959 66.1038 94.5242 65.9792ZM107.109 68.5279V74.0559C109.839 74.0219 112.49 73.7274 115.005 73.195C115.492 72.6172 116.421 71.4618 117.542 69.8646C114.518 69.0264 110.904 68.5619 107.109 68.5279ZM92.0547 65.8886C87.467 65.7074 83.8422 65.5374 82.4828 65.4695C84.839 67.5991 87.6596 69.4002 90.82 70.8048C91.8055 70.2837 92.9496 69.808 94.1957 69.4002C93.516 68.3694 92.7797 67.1913 92.0547 65.8886ZM91.8848 71.2579C93.4141 71.8809 95.0226 72.402 96.6878 72.8325C96.1554 72.1641 95.4757 71.2693 94.7168 70.1591C93.6859 70.4876 92.7344 70.8501 91.8848 71.2579ZM98.0471 73.1496C100.664 73.716 103.428 74.0332 106.271 74.0559V68.5279C102.374 68.5619 98.6588 69.049 95.5777 69.9213C96.6651 71.4618 97.5713 72.5833 98.0471 73.1496Z" fill="#00AB4E"/>
<path d="M106.69 22.4922C118.845 22.4922 129.527 27.601 135.519 35.2699C136.097 35.3038 136.652 35.3265 137.195 35.3492C131.101 26.8874 119.706 21.1782 106.69 21.1782C93.7651 21.1782 82.4374 26.8081 76.3091 35.1679C76.9095 35.1453 77.4759 35.1226 77.9743 35.0999C84.0006 27.5331 94.6147 22.4922 106.69 22.4922ZM106.69 76.5026C95.3623 76.5026 85.326 72.0622 79.1524 65.2656C78.5294 65.2203 77.929 65.1863 77.34 65.1523C83.6608 72.7758 94.4561 77.828 106.69 77.828C118.992 77.828 129.844 72.7305 136.142 65.0164C135.564 65.0617 134.964 65.0957 134.341 65.141C128.179 72.0169 118.086 76.5026 106.69 76.5026Z" fill="#00AB4E"/>
<path fill-rule="evenodd" clip-rule="evenodd" d="M149.181 37.8564C147.638 35.8654 145.189 35.4527 144.474 35.3744C143.293 35.2493 141.417 35.1573 139.042 35.0439C137.999 34.993 136.87 34.9402 135.655 34.8777C129.614 26.9994 118.856 21.74 106.614 21.74C94.4487 21.74 83.7557 26.927 77.6932 34.7134C75.721 34.7838 72.7962 34.9011 70.7185 35.0224C68.8287 35.1319 67.1592 35.703 65.8885 36.6692C64.2325 37.9327 63.2397 39.8261 62.9349 42.3002C62.7509 43.8043 62.4692 45.6741 62.1759 47.6554C61.6488 51.178 61.1026 54.8198 60.9205 57.476C60.7595 59.8366 61.1543 61.5578 62.1318 62.7352C63.0231 63.813 64.359 64.431 66.3408 64.6853C69.0625 65.0335 73.3999 65.3425 78.874 65.7063C85.0915 72.6966 95.202 77.2597 106.614 77.2597C118.089 77.2597 128.257 72.638 134.461 65.5713C136.905 65.407 139.021 65.2486 140.522 65.1391C142.76 64.9767 144.516 64.2276 145.739 62.9153C146.641 61.9412 147.245 60.6815 147.588 59.0544C149.055 52.103 150.03 44.6394 150.297 42.5193C150.528 40.6787 150.151 39.1121 149.181 37.8564Z" fill="#FEFEFE"/>
<path fill-rule="evenodd" clip-rule="evenodd" d="M109.59 57.1505C108.718 57.1546 107.846 57.1584 106.972 57.1584C106.972 57.1584 108.607 44.9499 108.787 43.5534C109.64 43.5534 111.423 43.5611 111.423 43.5611C111.12 45.916 109.857 55.2201 109.59 57.1505ZM111.818 42.8375C111.818 42.8375 109.441 42.8296 108.492 42.8238C108.318 42.8238 108.174 42.9587 108.149 43.1386C108.069 43.7861 106.236 57.4773 106.236 57.4773C106.225 57.5789 106.254 57.6845 106.317 57.7648C106.382 57.8429 106.476 57.888 106.579 57.888C107.68 57.888 108.787 57.8822 109.891 57.8763C110.056 57.8704 110.196 57.7432 110.229 57.5653C110.351 56.7262 111.986 44.6623 112.155 43.2482C112.165 43.1426 112.14 43.035 112.071 42.9587C112.007 42.8845 111.915 42.8375 111.818 42.8375ZM116.571 40.8895C115.858 46.5594 115.022 52.6325 113.949 60.0081C113.734 61.4809 112.64 62.6526 111.455 62.6681C108.895 62.7092 106.234 62.723 103.609 62.7092C103.018 62.7072 102.495 62.4179 102.133 61.9054C101.757 61.3694 101.598 60.6634 101.698 59.8751C102.478 53.6575 104.927 35.366 105.311 32.4498C105.311 32.4498 106.75 32.4498 107.29 32.4498C107.864 32.4537 108.373 32.7314 108.728 33.2341C109.109 33.77 109.265 34.4995 109.161 35.2819C109.161 35.2819 108.952 36.9424 108.868 37.5957C108.854 37.6974 108.885 37.8011 108.95 37.8852C109.017 37.9615 109.109 38.0084 109.205 38.0084C111.024 38.0182 112.841 38.0378 114.662 38.0671C115.237 38.073 115.756 38.3605 116.121 38.8592C116.506 39.4029 116.665 40.1208 116.571 40.8895ZM116.669 38.421C116.174 37.7365 115.463 37.3512 114.668 37.3414C112.977 37.316 111.291 37.2964 109.6 37.2827C109.667 36.7723 109.845 35.3758 109.845 35.3758C109.968 34.4096 109.767 33.4864 109.278 32.7979C108.795 32.1075 108.086 31.7261 107.296 31.7202H105.012C104.843 31.7202 104.699 31.8513 104.674 32.0292C104.276 35.0511 101.799 53.5595 101.01 59.8145C100.896 60.7553 101.094 61.651 101.579 62.3396C102.077 63.0417 102.794 63.4309 103.603 63.4388C104.247 63.4427 109.523 63.4251 111.465 63.3957C112.975 63.3781 114.367 61.9308 114.631 60.1157C115.705 52.7342 116.536 46.6573 117.249 40.9833C117.37 40.0288 117.167 39.1154 116.669 38.421ZM101.355 40.8229C100.527 46.9214 99.6448 53.4715 98.838 60.0492C98.6597 61.4809 97.6208 62.6075 96.4728 62.6075H96.4248C93.8738 62.5469 91.2288 62.4569 88.5665 62.3396C87.9762 62.3082 87.4395 62.0051 87.0562 61.4809C86.6652 60.9509 86.4927 60.2624 86.5732 59.5466C87.2095 53.6868 88.0145 47.5687 89.017 40.8288C89.2412 39.3619 90.3663 38.1903 91.5815 38.161C94.2092 38.0983 96.8733 38.0554 99.5183 38.026C100.086 38.026 100.59 38.296 100.939 38.783C101.31 39.3169 101.462 40.0445 101.355 40.8229ZM101.489 38.3447C101.006 37.6759 100.308 37.3043 99.4935 37.3043C96.8618 37.3277 94.1938 37.3727 91.5642 37.4314C90.027 37.4685 88.6105 38.9139 88.3385 40.7193C87.334 47.4592 86.533 53.5929 85.885 59.4565C85.7893 60.3719 86.0135 61.2443 86.508 61.9308C87.0217 62.6291 87.7405 63.0281 88.5415 63.0671C91.2077 63.1845 93.8545 63.2705 96.4133 63.3292L96.4728 63.335C97.9582 63.335 99.296 61.9308 99.5183 60.1471C100.325 53.5674 101.205 47.0171 102.035 40.9247C102.169 39.9545 101.974 39.0391 101.489 38.3447ZM94.3433 57.0625C93.4713 57.0431 92.5953 57.0293 91.7233 57.002C91.98 54.7254 93.1953 45.517 93.4732 43.6062C94.349 43.5963 95.2308 43.5845 96.1048 43.5807C95.7675 45.9609 94.5753 55.0481 94.3433 57.0625ZM96.5053 42.8511C95.3975 42.861 94.2878 42.8668 93.18 42.8786C93.015 42.8786 92.8752 43.0057 92.8465 43.172C92.6778 44.1302 91.1272 55.9048 91.0007 57.3306C90.9892 57.4263 91.0218 57.5261 91.083 57.6005C91.1483 57.6768 91.2383 57.7237 91.3342 57.7237C92.4343 57.749 93.5403 57.7745 94.6462 57.7921H94.65C94.8283 57.7921 94.974 57.6493 94.995 57.4656C95.0793 56.5209 96.6185 44.7249 96.8465 43.2756C96.8618 43.17 96.835 43.0623 96.766 42.9842C96.7008 42.8942 96.605 42.8434 96.5053 42.8511ZM70.7204 43.348C70.5594 43.3498 70.4253 43.4633 70.3869 43.6315C70.1818 44.4882 68.6581 55.2535 68.6006 56.5696C68.5891 56.7732 68.7386 56.951 68.9341 56.9589C69.3845 56.9883 71.8685 57.1408 72.5355 57.174C72.7118 57.174 72.869 57.0528 72.9035 56.8671C73.076 55.8226 73.5283 53.2858 73.5973 52.7812C73.6146 52.6677 73.5878 52.5661 73.5207 52.4858C73.4555 52.3998 73.3654 52.3548 73.2638 52.3548L72.6045 52.3332C72.363 52.3235 72.1158 52.1905 71.9356 51.9597C71.7113 51.6859 71.6098 51.3201 71.6558 50.9681C71.7976 49.9627 71.9375 49.0435 72.087 48.048L76.9822 48.0401C77.4325 48.0401 77.7508 48.1477 77.9175 48.3511C78.0805 48.5585 78.1322 48.885 78.0708 49.3389C78.0057 49.9157 77.1968 56.9023 76.7733 59.4565C76.5107 61.0545 75.8494 61.7137 74.4924 61.7293H74.3698C72.6812 61.7293 68.7348 61.4007 66.5459 61.0193C65.8674 60.9 65.1947 60.7239 64.8075 60.2448C64.4127 59.7578 64.2728 58.8718 64.2728 58.2067C64.2728 56.38 65.2177 48.2886 66.3792 41.7676C66.6226 40.4142 68.2249 39.2249 69.442 39.0978C72.0774 38.8259 75.4661 38.6792 77.4518 38.6792C77.8888 38.6792 78.4925 38.7986 78.9008 39.3463C79.261 39.8333 79.3953 40.5139 79.2765 41.265C79.0425 42.722 78.8125 44.1792 78.594 45.6285L75.6079 45.6481C75.0463 45.6481 74.5768 45.1297 74.5653 44.496C74.5691 44.3963 74.7416 43.3146 74.7416 43.3146C74.7416 43.3146 71.3338 43.3304 70.7204 43.348ZM75.6213 46.3972L78.9008 46.3717C79.0733 46.3658 79.215 46.2367 79.2458 46.0568C79.4758 44.5116 79.721 42.9508 79.974 41.3882C80.1235 40.4298 79.9415 39.5359 79.4547 38.8846C78.9985 38.2607 78.3028 37.9322 77.4518 37.9322C75.4508 37.9322 72.0353 38.0789 69.3711 38.3526C67.8799 38.5072 65.9863 39.9427 65.6834 41.6288C64.5948 47.7506 63.5617 56.1609 63.5617 58.2067C63.5617 58.6996 63.6307 59.9417 64.2728 60.7318C64.8018 61.3929 65.6623 61.6217 66.4233 61.7567C68.6504 62.1518 72.6543 62.4804 74.3698 62.4804H74.502C76.204 62.4569 77.149 61.5395 77.4748 59.5856C77.8965 57.0117 78.7072 50.0078 78.7723 49.4463C78.8663 48.7677 78.755 48.2396 78.4523 47.8621C78.1437 47.4865 77.6492 47.2911 76.9745 47.2911L71.7861 47.2969C71.6155 47.2969 71.4679 47.4299 71.4353 47.6176C71.4353 47.6176 71.0999 49.8297 70.9581 50.8645C70.8853 51.4277 71.0424 52.0046 71.3951 52.4447C71.7075 52.836 72.1407 53.0667 72.5853 53.0824L72.8364 53.0883C72.7828 53.4442 72.4052 55.5586 72.2595 56.4094C71.6788 56.376 69.6873 56.2548 69.3347 56.2333C69.5436 54.1346 70.7128 45.8359 71.0175 44.0892C71.5542 44.0815 73.5207 44.058 73.9059 44.0501C73.8695 44.2907 73.8599 44.5058 73.8599 44.5058C73.881 45.5464 74.663 46.3972 75.6213 46.3972ZM129.135 59.48C128.895 60.8805 127.737 62.0735 126.555 62.1439C123.956 62.2789 121.307 62.4002 118.691 62.4862L118.622 62.4921C118.064 62.4921 117.589 62.2418 117.249 61.7645C116.893 61.2502 116.757 60.5597 116.872 59.8145C118.102 51.5 119.042 44.6037 119.81 38.1669C120.475 38.1845 121.136 38.198 121.803 38.2177C122.388 38.2333 122.915 38.5189 123.281 39.0254C123.67 39.5476 123.831 40.2557 123.743 41.0127C123.109 46.139 122.373 51.4257 121.487 57.1839C121.47 57.2895 121.501 57.399 121.568 57.4773C121.635 57.5613 121.734 57.6005 121.832 57.6005C122.881 57.5692 123.929 57.5437 124.97 57.5105C125.135 57.5046 125.275 57.3775 125.301 57.2074C126.214 51.4179 126.959 46.0959 127.582 40.9247C127.753 39.5359 128.763 38.4934 129.934 38.4934L132.144 38.5853C131.396 45.1904 130.413 52.0301 129.135 59.48ZM132.788 37.9985C132.727 37.9204 132.631 37.8773 132.541 37.8676L129.934 37.7619C128.422 37.7619 127.116 39.0822 126.902 40.8366C126.29 45.9063 125.556 51.1303 124.667 56.7926C123.856 56.8181 123.047 56.8416 122.235 56.8671C123.091 51.2693 123.806 46.1096 124.42 41.1045C124.535 40.152 124.324 39.2562 123.824 38.5776C123.327 37.8988 122.614 37.5116 121.823 37.4881C121.052 37.4705 120.284 37.449 119.515 37.4314C119.331 37.4314 119.185 37.5664 119.164 37.7522C118.39 44.2751 117.443 51.2497 116.19 59.703C116.05 60.6438 116.232 61.5219 116.697 62.1987C117.167 62.8559 117.853 63.2197 118.622 63.2197L118.714 63.2159C121.338 63.1278 123.987 63.0105 126.595 62.8676C128.1 62.7796 129.512 61.3479 129.807 59.6052C131.117 52.0008 132.119 45.0221 132.87 38.2802C132.878 38.1746 132.849 38.073 132.788 37.9985ZM146.983 41.926C146.806 43.1993 146.628 44.457 146.446 45.6775C145.482 45.6617 144.524 45.65 143.558 45.6402C143.004 45.6344 142.523 45.1259 142.494 44.5136C142.486 44.2945 142.626 43.8369 142.626 43.8369C142.655 43.7235 142.64 43.6062 142.572 43.5103C142.509 43.4144 142.402 43.3597 142.293 43.3539C142.293 43.3539 139.822 43.2932 139.076 43.2756C138.885 43.2756 138.739 43.4144 138.716 43.6062C138.664 43.9758 138.153 47.0719 138.091 47.5041C138.074 47.6118 138.105 47.7233 138.172 47.8074C138.241 47.8934 138.34 47.9404 138.44 47.9404H143.853C144.439 47.9404 144.957 48.1848 145.311 48.623C145.653 49.0455 145.817 49.4483 145.712 50.3578C145.265 54.2246 144.861 56.2059 144.313 58.332C143.962 59.6971 142.701 60.9607 141.562 61.0898C137.896 61.5142 133.643 61.7431 133.643 61.7431C133.054 61.7724 132.554 61.5553 132.23 61.1074C131.889 60.6477 131.768 59.9945 131.891 59.2864C132.146 57.8117 132.387 56.3507 132.623 54.8897C133.625 54.8563 134.626 54.8251 135.663 54.7859C136.198 54.7859 136.614 55.267 136.617 55.8831C136.621 56.1257 136.516 56.6617 136.516 56.6617C136.504 56.7732 136.533 56.8865 136.606 56.9745C136.677 57.0567 136.78 57.1056 136.89 57.0939C137.965 57.0372 139.025 56.9785 140.098 56.9237C140.261 56.912 140.399 56.7888 140.432 56.6186C140.55 55.9594 140.928 53.8432 141.091 52.8496C141.106 52.7381 141.079 52.6227 141.01 52.5347C140.939 52.4506 140.832 52.4076 140.729 52.4076C139.774 52.4447 135.448 52.4546 135.448 52.4546C134.237 52.4546 133.361 51.5744 133.489 50.2561C133.717 48.0146 134.716 41.6229 134.77 41.1671C134.927 39.8333 135.947 38.8259 137.141 38.8259C140.635 38.8945 143.45 39.1174 144.88 39.309C145.463 39.3853 146.18 39.8234 146.505 40.2675C146.877 40.7721 147.059 41.2747 146.983 41.926ZM147.086 39.8351C146.666 39.2562 145.777 38.6733 144.968 38.558C143.571 38.3623 139.724 38.1141 137.141 38.073C135.586 38.073 134.268 39.3619 134.061 41.0772C134.013 41.5211 133.018 47.9345 132.782 50.2131C132.573 52.1964 133.969 53.2016 135.448 53.2134C135.448 53.2134 138.948 53.2016 140.315 53.1704C140.154 54.0994 139.914 55.4665 139.782 56.1883C138.952 56.2334 138.118 56.2783 137.286 56.3155C137.286 56.3155 137.33 56.0339 137.33 55.8831C137.33 54.8446 136.594 54.033 135.663 54.033L132.309 54.1445C132.138 54.1542 131.996 54.2813 131.971 54.4593C131.72 56.0201 131.46 57.5809 131.193 59.1514C131.028 60.0785 131.203 60.9392 131.667 61.5689C132.106 62.1694 132.763 62.5 133.528 62.5C133.579 62.5 137.949 62.2671 141.637 61.8408C143.088 61.6745 144.564 60.2233 145.003 58.5294C145.561 56.3722 145.965 54.3596 146.417 50.4458C146.534 49.4366 146.379 48.7853 145.856 48.132C145.359 47.5217 144.652 47.1834 143.853 47.1834H138.86C138.923 46.7982 139.306 44.496 139.374 44.0404C140.018 44.0501 141.819 44.0991 141.819 44.0991C141.819 44.0991 141.771 44.2769 141.781 44.545C141.827 45.5542 142.622 46.3854 143.556 46.3933C144.61 46.405 145.664 46.4168 146.739 46.4344C146.941 46.4285 147.069 46.2954 147.098 46.1155C147.301 44.7973 147.496 43.4203 147.684 42.0278C147.803 41.0655 147.487 40.3731 147.086 39.8351ZM87.1233 35.589C85.565 45.3116 84.4112 53.9802 83.6062 62.0852C82.9507 62.0442 82.299 62.0051 81.6455 61.9699C81.059 61.9308 80.526 61.6316 80.1447 61.1211C79.746 60.5949 79.5697 59.9065 79.6445 59.1789C80.4878 51.0893 81.7068 42.5518 83.3628 33.0952C84.0317 33.058 85.471 32.9798 85.471 32.9798C86.004 32.9798 86.4543 33.2086 86.763 33.6507C87.1213 34.1357 87.246 34.8281 87.1233 35.589ZM87.311 33.2067C86.8453 32.5573 86.161 32.2151 85.3388 32.2522C84.576 32.2952 83.819 32.3363 83.0542 32.3833C82.897 32.3911 82.7648 32.5123 82.736 32.6786C81.0513 42.2683 79.817 50.9074 78.962 59.1006C78.8663 60.0198 79.0943 60.9 79.608 61.5768C80.112 62.2457 80.825 62.6447 81.6033 62.6936C82.37 62.7464 83.1328 62.7875 83.8937 62.8286H83.9148C84.0853 62.8286 84.2348 62.6916 84.254 62.5059C85.061 54.3126 86.2243 45.5542 87.8018 35.7141C87.9532 34.7499 87.7825 33.8619 87.311 33.2067Z" fill="#C64C27"/>
<path fill-rule="evenodd" clip-rule="evenodd" d="M111.819 42.8347C111.819 42.8347 109.444 42.8269 108.493 42.823C108.321 42.823 108.175 42.9559 108.15 43.136C108.07 43.7833 106.239 57.4745 106.239 57.4745C106.226 57.5781 106.255 57.6819 106.318 57.764C106.383 57.8403 106.479 57.8873 106.581 57.8873C107.681 57.8873 108.789 57.8794 109.893 57.8735C110.059 57.8697 110.199 57.7406 110.23 57.5645C110.355 56.7235 111.988 44.6616 112.158 43.2455C112.168 43.1419 112.141 43.0342 112.072 42.9559C112.009 42.8817 111.919 42.8347 111.819 42.8347ZM116.572 40.8867C115.859 46.5568 115.025 52.6299 113.952 60.0055C113.736 61.4801 112.643 62.6498 111.457 62.6674C108.896 62.7085 106.236 62.7202 103.61 62.7085C103.019 62.7046 102.496 62.4151 102.136 61.9046C101.758 61.3668 101.599 60.6627 101.699 59.8724C102.479 53.6567 104.928 35.3652 105.312 32.447C105.312 32.447 106.751 32.447 107.294 32.447C107.865 32.4509 108.377 32.7287 108.729 33.2313C109.111 33.7692 109.266 34.4988 109.164 35.2791C109.164 35.2791 108.955 36.9397 108.869 37.5929C108.858 37.6966 108.886 37.8003 108.952 37.8845C109.019 37.9607 109.111 38.0077 109.208 38.0077C111.025 38.0154 112.842 38.035 114.663 38.0663C115.24 38.0702 115.76 38.3577 116.122 38.8565C116.507 39.4022 116.668 40.118 116.572 40.8867ZM101.356 40.8221C100.528 46.9186 99.6461 53.4689 98.8391 60.0484C98.6609 61.4801 97.6241 62.6048 96.4741 62.6048H96.4281C93.8769 62.5442 91.2319 62.4541 88.5696 62.3368C87.9793 62.3074 87.4408 62.0043 87.0574 61.4801C86.6664 60.9482 86.4958 60.2596 86.5744 59.5438C87.2126 53.684 88.0176 47.5661 89.0181 40.828C89.2424 39.3611 90.3676 38.1896 91.5826 38.1582C94.2104 38.0957 96.8766 38.0526 99.5196 38.0233C100.087 38.0233 100.591 38.2952 100.942 38.7822C101.312 39.3162 101.465 40.0417 101.356 40.8221ZM96.5086 42.8485C95.3988 42.8602 94.2891 42.8641 93.1811 42.8758C93.0163 42.8758 92.8764 43.0029 92.8496 43.1692C92.6809 44.1295 91.1303 55.904 91.0019 57.3278C90.9904 57.4237 91.0249 57.5253 91.0863 57.5997C91.1496 57.674 91.2396 57.721 91.3354 57.721C92.4376 57.7483 93.5434 57.7738 94.6493 57.7894H94.6513C94.8296 57.7894 94.9751 57.6467 94.9963 57.4628C95.0826 56.5201 96.6216 44.7221 96.8478 43.2748C96.8651 43.1672 96.8381 43.0597 96.7673 42.9814C96.7021 42.8934 96.6063 42.8406 96.5086 42.8485ZM70.7217 43.3472C70.5626 43.3472 70.4284 43.4606 70.3882 43.6307C70.1831 44.4856 68.6593 55.2507 68.6037 56.567C68.5922 56.7704 68.7398 56.9503 68.9353 56.9582C69.3857 56.9855 71.8697 57.138 72.5367 57.1733C72.7131 57.1733 72.8702 57.05 72.9047 56.8663C73.0792 55.8218 73.5296 53.283 73.6005 52.7784C73.6177 52.6651 73.589 52.5653 73.5219 52.4832C73.4587 52.399 73.3667 52.3521 73.2651 52.3521L72.6057 52.3306C72.3642 52.3207 72.1189 52.1878 71.9368 51.9569C71.7126 51.6831 71.611 51.3173 71.6589 50.9673C71.8007 49.9601 71.9387 49.0407 72.0882 48.0472L76.9834 48.0393C77.4338 48.0393 77.7521 48.147 77.9188 48.3503C78.0816 48.5557 78.1353 48.8843 78.0741 49.3381C78.0069 49.9131 77.1981 56.8995 76.7764 59.4558C76.5138 61.0518 75.8507 61.713 74.4956 61.7265H74.371C72.6824 61.7265 68.736 61.398 66.5472 61.0166C65.8687 60.8974 65.1959 60.7213 64.8107 60.242C64.4139 59.755 64.274 58.869 64.274 58.2041C64.274 56.3793 65.2189 48.2878 66.3804 41.7648C66.6238 40.4134 68.2262 39.2223 69.4452 39.095C72.0787 38.8251 75.4692 38.6784 77.4549 38.6784C77.8901 38.6784 78.4956 38.7978 78.9021 39.3435C79.2643 39.8305 79.3966 40.5132 79.2776 41.2642C79.0438 42.7194 78.8138 44.1784 78.5953 45.6257L75.6092 45.6453C75.0476 45.6453 74.5799 45.127 74.5665 44.4933C74.5703 44.3935 74.7428 43.3139 74.7428 43.3139C74.7428 43.3139 71.335 43.3276 70.7217 43.3472ZM129.136 59.4774C128.898 60.8798 127.739 62.0709 126.556 62.1413C123.957 62.2763 121.31 62.3975 118.692 62.4835L118.623 62.4893C118.067 62.4893 117.592 62.239 117.251 61.7618C116.894 61.2494 116.758 60.557 116.875 59.8118C118.104 51.4974 119.045 44.6009 119.811 38.1641C120.478 38.1817 121.138 38.1954 121.805 38.2169C122.391 38.2306 122.916 38.5161 123.282 39.0246C123.672 39.5468 123.834 40.255 123.746 41.0099C123.112 46.1362 122.376 51.425 121.488 57.1811C121.473 57.2867 121.504 57.3962 121.569 57.4745C121.636 57.5605 121.736 57.5997 121.835 57.5997C122.882 57.5684 123.93 57.5411 124.973 57.5077C125.136 57.5018 125.276 57.3748 125.303 57.2046C126.215 51.4171 126.961 46.0951 127.585 40.9219C127.754 39.5351 128.766 38.4927 129.935 38.4927L132.145 38.5827C131.398 45.1877 130.414 52.0293 129.136 59.4774ZM146.984 41.9232C146.81 43.1965 146.629 44.4542 146.447 45.6747C145.483 45.6609 144.525 45.6473 143.559 45.6375C143.005 45.6336 142.524 45.1231 142.495 44.5109C142.487 44.2938 142.629 43.8361 142.629 43.8361C142.658 43.7228 142.643 43.6054 142.574 43.5095C142.51 43.4118 142.405 43.357 142.294 43.3511C142.294 43.3511 139.823 43.2904 139.08 43.2748C138.886 43.2728 138.74 43.4118 138.717 43.6054C138.666 43.9731 138.156 47.0692 138.093 47.5034C138.077 47.609 138.108 47.7225 138.173 47.8046C138.244 47.8906 138.342 47.9376 138.443 47.9376H143.856C144.441 47.9376 144.958 48.1822 145.313 48.6202C145.656 49.0427 145.821 49.4476 145.713 50.355C145.267 54.2218 144.864 56.2032 144.316 58.3292C143.963 59.6945 142.704 60.9599 141.566 61.089C137.897 61.5135 133.646 61.7423 133.646 61.7423C133.057 61.7716 132.557 61.5525 132.231 61.1046C131.89 60.6451 131.771 59.9917 131.892 59.2856C132.147 57.811 132.389 56.3479 132.624 54.8889C133.627 54.8537 134.627 54.8223 135.664 54.7833C136.199 54.7833 136.615 55.2644 136.619 55.8805C136.622 56.1229 136.517 56.6589 136.517 56.6589C136.506 56.7704 136.536 56.8857 136.609 56.9719C136.68 57.0541 136.782 57.1028 136.893 57.0911C137.968 57.0364 139.028 56.9758 140.099 56.923C140.262 56.9092 140.402 56.788 140.433 56.6158C140.552 55.9568 140.929 53.8404 141.092 52.8488C141.109 52.7355 141.083 52.62 141.012 52.5319C140.941 52.4498 140.833 52.4049 140.73 52.4069C139.775 52.4421 135.449 52.4518 135.449 52.4518C134.24 52.4518 133.364 51.5717 133.493 50.2535C133.719 48.012 134.719 41.6201 134.773 41.1645C134.928 39.8305 135.95 38.8251 137.142 38.8251C140.638 38.8917 143.452 39.1167 144.881 39.3063C145.466 39.3825 146.183 39.8208 146.509 40.2667C146.879 40.7713 147.063 41.2739 146.984 41.9232ZM87.1246 35.5862C85.5663 45.3089 84.4143 53.9774 83.6093 62.0826C82.9519 62.0434 82.3003 62.0043 81.6486 61.9671C81.0601 61.9301 80.5273 61.6288 80.1478 61.1203C79.7491 60.5941 79.5728 59.9037 79.6476 59.1761C80.4891 51.0885 81.7099 42.5492 83.3659 33.0925C84.0329 33.0553 85.4723 32.9771 85.4723 32.9771C86.0051 32.9771 86.4576 33.2079 86.7661 33.6479C87.1226 34.135 87.2491 34.8273 87.1246 35.5862Z" fill="#F27921"/>
<path fill-rule="evenodd" clip-rule="evenodd" d="M97.9012 73.8065C100.54 74.3892 103.318 74.7119 106.185 74.7394V69.0497C102.26 69.0849 98.5222 69.5935 95.4114 70.4795C96.5097 72.0794 97.4239 73.2333 97.9012 73.8065ZM91.6969 71.8682C93.2419 72.5039 94.8576 73.0455 96.5384 73.4818C96.0037 72.7952 95.3176 71.8682 94.5529 70.7377C93.5121 71.0702 92.5557 71.4477 91.6969 71.8682ZM91.8734 66.3467C87.2464 66.1668 83.6009 65.9908 82.2364 65.9242C84.6092 68.107 87.4497 69.965 90.6352 71.4066C91.6299 70.8648 92.7779 70.3857 94.0411 69.965C93.3472 68.8971 92.6036 67.6845 91.8734 66.3467ZM107.028 69.0497V74.7336C109.783 74.7002 112.447 74.3951 114.988 73.8476C115.481 73.2471 116.42 72.0638 117.541 70.4209C114.498 69.5739 110.864 69.0889 107.028 69.0497ZM94.3592 66.4426C93.8532 66.425 93.3569 66.4074 92.8699 66.3878C93.5542 67.6121 94.2442 68.727 94.8882 69.703C98.1389 68.7387 102.064 68.1833 106.185 68.1461V66.6186C105.723 66.6186 105.257 66.6205 104.794 66.6205C100.968 66.6205 97.5524 66.5618 94.3592 66.4426ZM118.916 69.9005C120.236 70.327 121.426 70.8257 122.461 71.385C125.685 69.9221 128.553 68.0327 130.945 65.8069C127.767 66.0084 124.309 66.2059 121.043 66.3388C120.326 67.6493 119.602 68.8443 118.916 69.9005ZM90.8269 34.2663C90.8977 34.2663 90.9744 34.2643 91.0549 34.2643C92.0189 32.3378 93.0424 30.6088 93.9951 29.138C92.7204 28.7038 91.5629 28.2011 90.5527 27.6378C89.3951 28.1659 88.2854 28.7487 87.2292 29.3766C87.9864 29.6211 88.6534 30.0318 89.2054 30.6068C90.0851 31.5124 90.6504 32.8092 90.8269 34.2663ZM116.345 73.5267C118.105 73.0789 119.799 72.5136 121.413 71.8427C120.512 71.4085 119.5 71.0173 118.406 70.6732C117.61 71.8526 116.893 72.8167 116.345 73.5267ZM121.919 34.2917C125.752 34.4091 129.816 34.5479 132.422 34.6946C129.85 31.8977 126.567 29.5272 122.78 27.763C121.689 28.3458 120.441 28.8602 119.069 29.2984C119.991 30.7261 120.982 32.4121 121.919 34.2917ZM111.615 30.8122C112.28 31.6904 112.698 32.7818 112.844 34.0296C113.555 34.0512 114.63 34.0785 115.795 34.1157C117.283 34.1568 119.073 34.2057 120.953 34.2643C120.048 32.4904 119.098 30.9041 118.22 29.5643C116.213 30.1394 113.978 30.5638 111.615 30.8122ZM120.044 66.3819C118.668 66.4309 117.338 66.4719 116.085 66.4934C113.373 66.5442 110.254 66.5951 107.028 66.6146V68.1501C111.055 68.1891 114.877 68.7152 118.065 69.6364C118.699 68.6723 119.376 67.5789 120.044 66.3819ZM101.535 34.0883C101.631 33.4448 101.756 32.5666 101.836 31.8625C101.878 31.4753 101.959 31.1291 102.066 30.8239C99.4576 30.5579 97.0024 30.0768 94.8384 29.4118C93.9319 30.7926 92.9504 32.4278 92.0152 34.2526C94.8212 34.2096 99.5784 34.1216 101.535 34.0883ZM95.3809 28.5942C97.5256 29.2299 99.9559 29.6876 102.54 29.9223C103.565 28.5551 105.357 28.5551 106.068 28.5551H106.185V24.2678C103.318 24.2913 100.542 24.614 97.9012 25.1988C97.3722 25.8462 96.4561 27.0217 95.3809 28.5942ZM117.67 28.7351C116.43 26.9063 115.41 25.6585 114.992 25.1617C112.451 24.6121 109.783 24.303 107.028 24.2698V28.5727C108.47 28.6079 109.783 29.0832 110.793 29.9418C113.258 29.7228 115.59 29.314 117.67 28.7351ZM121.679 27.2701C119.995 26.5523 118.218 25.9557 116.366 25.4824C116.926 26.1963 117.683 27.2192 118.532 28.4828C119.676 28.1287 120.733 27.7239 121.679 27.2701ZM96.5442 25.5215C94.8422 25.9616 93.2054 26.5093 91.6414 27.1606C92.5116 27.5928 93.4794 27.982 94.5259 28.3263C95.2984 27.1879 95.9904 26.2335 96.5442 25.5215Z" fill="#06AA4D"/>
<path d="M43.3359 106.572C41.9922 106.572 40.8698 106.218 39.9688 105.51C39.0677 104.796 38.526 103.838 38.3438 102.635H40.6641C40.8307 103.239 41.1484 103.713 41.6172 104.057C42.0911 104.395 42.6615 104.564 43.3281 104.564C44.1198 104.564 44.776 104.291 45.2969 103.744C45.8177 103.197 46.112 102.455 46.1797 101.518H41.7344V99.6895H46.1562C46.0729 98.804 45.7734 98.1035 45.2578 97.5879C44.7422 97.0671 44.1016 96.8066 43.3359 96.8066C42.6797 96.8066 42.1068 96.9941 41.6172 97.3691C41.1328 97.7389 40.8177 98.2337 40.6719 98.8535H38.3516C38.4505 98.0618 38.7266 97.3587 39.1797 96.7441C39.6328 96.1296 40.2214 95.653 40.9453 95.3145C41.6693 94.9707 42.4661 94.7988 43.3359 94.7988C44.9609 94.7988 46.2474 95.3275 47.1953 96.3848C48.1484 97.4368 48.625 98.8691 48.625 100.682C48.625 102.499 48.151 103.937 47.2031 104.994C46.2604 106.046 44.9714 106.572 43.3359 106.572ZM54.5547 101.713L58.2266 106.322H55.4688L52.5 102.604H52.4375V106.322H50.1641V97.7207H52.4375V101.205H52.5L55.4219 97.7207H58.0312L54.5547 101.713ZM66.8281 100.643H64.6875C64.5938 100.252 64.3984 99.9421 64.1016 99.7129C63.8099 99.4837 63.4453 99.3691 63.0078 99.3691C62.4193 99.3691 61.9531 99.6061 61.6094 100.08C61.2656 100.549 61.0938 101.195 61.0938 102.018C61.0938 102.851 61.2656 103.502 61.6094 103.971C61.9531 104.434 62.4219 104.666 63.0156 104.666C63.4583 104.666 63.8255 104.559 64.1172 104.346C64.4089 104.127 64.6042 103.814 64.7031 103.408H66.8359C66.7266 104.346 66.3281 105.09 65.6406 105.643C64.9531 106.195 64.0703 106.471 62.9922 106.471C61.7057 106.471 60.6849 106.072 59.9297 105.275C59.1745 104.479 58.7969 103.393 58.7969 102.018C58.7969 100.658 59.1745 99.5775 59.9297 98.7754C60.6849 97.9733 61.7005 97.5723 62.9766 97.5723C64.0547 97.5723 64.9375 97.8561 65.625 98.4238C66.3177 98.9915 66.7188 99.7311 66.8281 100.643ZM73.8203 106.322V99.4473H70.4531V106.322H68.1797V97.7207H76.0938V106.322H73.8203ZM81.6406 99.2754C81.1198 99.2754 80.6849 99.4473 80.3359 99.791C79.9922 100.135 79.7995 100.583 79.7578 101.135H83.4688C83.4479 100.572 83.2708 100.122 82.9375 99.7832C82.6042 99.4447 82.1719 99.2754 81.6406 99.2754ZM83.5 103.697H85.6016C85.4766 104.531 85.0573 105.202 84.3438 105.713C83.6302 106.218 82.75 106.471 81.7031 106.471C80.3958 106.471 79.3646 106.077 78.6094 105.291C77.8594 104.505 77.4844 103.426 77.4844 102.057C77.4844 100.687 77.8568 99.5983 78.6016 98.791C79.3516 97.9785 80.3568 97.5723 81.6172 97.5723C82.8568 97.5723 83.8411 97.9577 84.5703 98.7285C85.3047 99.4993 85.6719 100.538 85.6719 101.846V102.549H79.7344V102.689C79.7344 103.309 79.9193 103.812 80.2891 104.197C80.6589 104.577 81.1432 104.768 81.7422 104.768C82.1745 104.768 82.5469 104.674 82.8594 104.486C83.1771 104.294 83.3906 104.031 83.5 103.697ZM91.9922 97.6191C93.0859 97.6191 93.9479 98.0124 94.5781 98.7988C95.2083 99.5801 95.5234 100.653 95.5234 102.018C95.5234 103.382 95.2083 104.458 94.5781 105.244C93.9531 106.031 93.1016 106.424 92.0234 106.424C91.4036 106.424 90.862 106.288 90.3984 106.018C89.9349 105.747 89.5859 105.367 89.3516 104.877H89.3047V109.025H87.0234V97.7207H89.2734V99.1895H89.3203C89.5495 98.7051 89.901 98.3223 90.375 98.041C90.849 97.7598 91.388 97.6191 91.9922 97.6191ZM91.2344 104.58C91.8281 104.58 92.3021 104.348 92.6562 103.885C93.0104 103.421 93.1875 102.799 93.1875 102.018C93.1875 101.247 93.0078 100.63 92.6484 100.166C92.2943 99.6973 91.8229 99.4629 91.2344 99.4629C90.651 99.4629 90.1823 99.6973 89.8281 100.166C89.474 100.635 89.2969 101.255 89.2969 102.025C89.2969 102.796 89.474 103.416 89.8281 103.885C90.1823 104.348 90.651 104.58 91.2344 104.58ZM103.781 97.7207V99.4473H101.203V106.322H98.9297V99.4473H96.3516V97.7207H103.781ZM113.117 106.322V97.7207H115.391V106.322H113.117ZM108.578 101.916H107.266V104.611H108.578C109.01 104.611 109.357 104.489 109.617 104.244C109.878 103.994 110.008 103.666 110.008 103.26C110.008 102.859 109.878 102.536 109.617 102.291C109.357 102.041 109.01 101.916 108.578 101.916ZM104.992 106.322V97.7207H107.266V100.221H108.938C109.953 100.221 110.76 100.497 111.359 101.049C111.964 101.601 112.266 102.343 112.266 103.275C112.266 104.208 111.964 104.95 111.359 105.502C110.76 106.049 109.953 106.322 108.938 106.322H104.992ZM123.156 106.322H120.789V95.0488H128.055V97.002H123.156V106.322ZM130.945 102.221C130.909 102.887 130.833 103.465 130.719 103.955C130.604 104.445 130.435 104.882 130.211 105.268C129.987 105.648 129.69 105.937 129.32 106.135C128.956 106.327 128.516 106.424 128 106.424C127.698 106.424 127.456 106.387 127.273 106.314V104.385C127.44 104.426 127.604 104.447 127.766 104.447C127.969 104.447 128.141 104.39 128.281 104.275C128.427 104.161 128.542 103.994 128.625 103.775C128.714 103.551 128.779 103.304 128.82 103.033C128.867 102.762 128.901 102.445 128.922 102.08L129.172 97.7207H135.656V106.322H133.383V99.4473H131.125L130.945 102.221ZM141.289 106.471C139.982 106.471 138.948 106.075 138.188 105.283C137.427 104.492 137.047 103.403 137.047 102.018C137.047 100.648 137.43 99.5645 138.195 98.7676C138.961 97.9707 139.992 97.5723 141.289 97.5723C142.591 97.5723 143.622 97.9707 144.383 98.7676C145.148 99.5592 145.531 100.643 145.531 102.018C145.531 103.408 145.151 104.499 144.391 105.291C143.635 106.077 142.602 106.471 141.289 106.471ZM139.867 104.01C140.211 104.479 140.685 104.713 141.289 104.713C141.893 104.713 142.365 104.479 142.703 104.01C143.042 103.536 143.211 102.872 143.211 102.018C143.211 101.174 143.039 100.515 142.695 100.041C142.357 99.5618 141.888 99.3223 141.289 99.3223C140.685 99.3223 140.211 99.5618 139.867 100.041C139.529 100.515 139.359 101.174 139.359 102.018C139.359 102.872 139.529 103.536 139.867 104.01ZM151.023 106.51C149.633 106.51 148.565 106.072 147.82 105.197C147.076 104.322 146.703 103.046 146.703 101.369C146.703 100.156 146.802 99.1165 147 98.252C147.198 97.3822 147.497 96.6738 147.898 96.127C148.305 95.5801 148.799 95.1738 149.383 94.9082C149.966 94.6426 150.659 94.4967 151.461 94.4707L152.438 94.4395C152.943 94.4186 153.411 94.3717 153.844 94.2988C154.281 94.2259 154.565 94.153 154.695 94.0801V95.8613C154.617 95.9342 154.378 96.0124 153.977 96.0957C153.581 96.1738 153.115 96.2207 152.578 96.2363L151.656 96.2676C151.12 96.2832 150.664 96.3613 150.289 96.502C149.914 96.6374 149.604 96.8483 149.359 97.1348C149.115 97.416 148.922 97.7572 148.781 98.1582C148.646 98.554 148.542 99.0436 148.469 99.627H148.531C149.083 98.554 150.052 98.0176 151.438 98.0176C152.599 98.0176 153.526 98.3874 154.219 99.127C154.917 99.8665 155.266 100.864 155.266 102.119C155.266 103.473 154.885 104.544 154.125 105.33C153.365 106.117 152.331 106.51 151.023 106.51ZM150.984 104.705C151.599 104.705 152.076 104.486 152.414 104.049C152.758 103.606 152.93 102.981 152.93 102.174C152.93 101.403 152.758 100.804 152.414 100.377C152.07 99.9447 151.594 99.7285 150.984 99.7285C150.37 99.7285 149.891 99.9447 149.547 100.377C149.208 100.804 149.039 101.403 149.039 102.174C149.039 102.981 149.208 103.606 149.547 104.049C149.885 104.486 150.365 104.705 150.984 104.705ZM157.68 109.463C157.216 109.463 156.927 109.452 156.812 109.432V107.666C156.891 107.682 157.062 107.689 157.328 107.689C157.76 107.689 158.099 107.609 158.344 107.447C158.594 107.291 158.763 107.044 158.852 106.705L158.93 106.377L155.914 97.7207H158.414L160.273 104.471H160.32L162.188 97.7207H164.594L161.617 106.494C161.253 107.588 160.773 108.356 160.18 108.799C159.591 109.242 158.758 109.463 157.68 109.463ZM173.219 100.643H171.078C170.984 100.252 170.789 99.9421 170.492 99.7129C170.201 99.4837 169.836 99.3691 169.398 99.3691C168.81 99.3691 168.344 99.6061 168 100.08C167.656 100.549 167.484 101.195 167.484 102.018C167.484 102.851 167.656 103.502 168 103.971C168.344 104.434 168.812 104.666 169.406 104.666C169.849 104.666 170.216 104.559 170.508 104.346C170.799 104.127 170.995 103.814 171.094 103.408H173.227C173.117 104.346 172.719 105.09 172.031 105.643C171.344 106.195 170.461 106.471 169.383 106.471C168.096 106.471 167.076 106.072 166.32 105.275C165.565 104.479 165.188 103.393 165.188 102.018C165.188 100.658 165.565 99.5775 166.32 98.7754C167.076 97.9733 168.091 97.5723 169.367 97.5723C170.445 97.5723 171.328 97.8561 172.016 98.4238C172.708 98.9915 173.109 99.7311 173.219 100.643Z" fill="white"/>
</svg>
