<svg width="24" height="24" viewBox="0 0 24 24" fill="none" xmlns="http://www.w3.org/2000/svg">
<g clip-path="url(#clip0_486_1944)">
<path d="M23.9837 2.42216C24.1007 1.87753 23.5668 1.4183 23.0459 1.61705L0.452371 10.242C0.180452 10.3458 0.000594335 10.6064 3.18407e-05 10.8975C-0.000530654 11.1885 0.178296 11.4499 0.44984 11.5547L6.79679 14.006V21.7269C6.79679 22.0526 7.02043 22.3356 7.3373 22.4109C7.65207 22.4858 7.98028 22.336 8.12784 22.0433L10.7529 16.8342L17.1589 21.5884C17.5486 21.8776 18.1087 21.6936 18.2505 21.2289C24.2316 1.61859 23.9731 2.47143 23.9837 2.42216ZM18.4065 4.8933L7.40026 12.7316L2.66462 10.9027L18.4065 4.8933ZM8.20303 13.8863L17.7967 7.05398C9.54148 15.7628 9.97264 15.3044 9.93664 15.3529C9.88315 15.4248 10.0297 15.1444 8.20303 18.7692V13.8863ZM17.1963 19.8649L11.5575 15.6802L21.7532 4.92423L17.1963 19.8649Z" fill="white"/>
</g>
<defs>
<clipPath id="clip0_486_1944">
<rect width="24" height="24" fill="white"/>
</clipPath>
</defs>
</svg>
