<svg width="24" height="24" viewBox="0 0 24 24" fill="none" xmlns="http://www.w3.org/2000/svg">
<path d="M15.3 21C15.5387 21 15.7676 20.9052 15.9364 20.7364C16.1052 20.5676 16.2 20.3387 16.2 20.1C16.2 19.8613 16.1052 19.6324 15.9364 19.4636C15.7676 19.2948 15.5387 19.2 15.3 19.2H7.80001C7.16349 19.2 6.55304 18.9471 6.10295 18.4971C5.65286 18.047 5.40001 17.4365 5.40001 16.8V7.2C5.40001 6.56348 5.65286 5.95303 6.10295 5.50294C6.55304 5.05286 7.16349 4.8 7.80001 4.8H15.3C15.5387 4.8 15.7676 4.70518 15.9364 4.5364C16.1052 4.36761 16.2 4.13869 16.2 3.9C16.2 3.66131 16.1052 3.43239 15.9364 3.2636C15.7676 3.09482 15.5387 3 15.3 3H7.80001C6.6861 3 5.61781 3.4425 4.83016 4.23015C4.04251 5.0178 3.60001 6.08609 3.60001 7.2V16.8C3.60001 17.9139 4.04251 18.9822 4.83016 19.7698C5.61781 20.5575 6.6861 21 7.80001 21H15.3ZM16.4892 7.4388C16.576 7.35857 16.6778 7.29623 16.7887 7.25534C16.8996 7.21446 17.0175 7.19582 17.1356 7.2005C17.2538 7.20518 17.3698 7.23309 17.4771 7.28262C17.5845 7.33216 17.681 7.40235 17.7612 7.4892L21.3612 11.3892C21.5149 11.5555 21.6002 11.7736 21.6002 12C21.6002 12.2264 21.5149 12.4445 21.3612 12.6108L17.7612 16.5108C17.5991 16.686 17.3739 16.7896 17.1354 16.7988C16.8968 16.8081 16.6644 16.7222 16.4892 16.56C16.314 16.3978 16.2104 16.1727 16.2012 15.9342C16.1919 15.6956 16.2779 15.4632 16.44 15.288L18.6456 12.8988H9.30001C9.06131 12.8988 8.83239 12.804 8.66361 12.6352C8.49483 12.4664 8.40001 12.2375 8.40001 11.9988C8.40001 11.7601 8.49483 11.5312 8.66361 11.3624C8.83239 11.1936 9.06131 11.0988 9.30001 11.0988H18.6444L16.4388 8.7096C16.3586 8.62278 16.2962 8.521 16.2553 8.41009C16.2145 8.29917 16.1958 8.18128 16.2005 8.06316C16.2052 7.94504 16.2331 7.829 16.2826 7.72166C16.3322 7.61433 16.4024 7.5178 16.4892 7.4376V7.4388Z" fill="white"/>
</svg>
